<svg xmlns="http://www.w3.org/2000/svg" viewBox="96.90 44.40 95.75 73.10" width="383" height="292" font-family="sans-serif">
<rect x="96.90" y="44.40" width="95.75" height="73.10" fill="#FFFFFF"/>
<line x1="156.85" y1="103.15" x2="110.35" y2="86.35" stroke="#606060" stroke-width="0.80" stroke-linecap="round"/>
<line x1="141.65" y1="73.33" x2="141.65" y2="57.85" stroke="#1A1A1A" stroke-width="0.80" stroke-linecap="round"/>
<line x1="141.88" y1="73.33" x2="141.65" y2="73.33" stroke="#1A1A1A" stroke-width="0.80" stroke-linecap="round"/>
<line x1="142.90" y1="73.33" x2="142.90" y2="57.85" stroke="#8A8A8A" stroke-width="0.80" stroke-linecap="round"/>
<line x1="143.12" y1="73.33" x2="142.90" y2="73.33" stroke="#8A8A8A" stroke-width="0.80" stroke-linecap="round"/>
<line x1="144.15" y1="73.33" x2="144.15" y2="57.85" stroke="#7B3F00" stroke-width="0.80" stroke-linecap="round"/>
<line x1="144.38" y1="73.33" x2="144.15" y2="73.33" stroke="#7B3F00" stroke-width="0.80" stroke-linecap="round"/>
<polyline points="151.40,107.95 151.40,100.85" fill="none" stroke="#303030" stroke-width="0.35"/>
<polyline points="156.14,105.65 156.85,105.15" fill="none" stroke="#303030" stroke-width="0.35"/>
<polyline points="156.85,100.85 151.40,100.85" fill="none" stroke="#303030" stroke-width="0.35"/>
<polyline points="156.85,106.15 156.14,105.65" fill="none" stroke="#303030" stroke-width="0.35"/>
<polyline points="156.85,107.95 151.40,107.95" fill="none" stroke="#303030" stroke-width="0.35"/>
<polyline points="156.85,107.95 156.85,100.85" fill="none" stroke="#303030" stroke-width="0.35"/>
<circle cx="156.85" cy="105.65" r="0.70" fill="#FFFFFF" stroke="#404040" stroke-width="0.25"/>
<text x="156.85" y="108.55" font-size="1.8" text-anchor="middle" fill="#333333">1</text>
<circle cx="156.85" cy="104.40" r="0.70" fill="#FFFFFF" stroke="#404040" stroke-width="0.25"/>
<text x="156.85" y="107.30" font-size="1.8" text-anchor="middle" fill="#333333">2</text>
<circle cx="156.85" cy="103.15" r="0.70" fill="#FFFFFF" stroke="#404040" stroke-width="0.25"/>
<text x="156.85" y="106.05" font-size="1.8" text-anchor="middle" fill="#333333">3</text>
<circle cx="153.50" cy="101.30" r="0.70" fill="#FFFFFF" stroke="#404040" stroke-width="0.25"/>
<text x="153.50" y="104.20" font-size="1.8" text-anchor="middle" fill="#333333">MP</text>
<text x="154.90" y="104.40" font-size="3.2" font-weight="bold" text-anchor="middle" fill="#000000" stroke="#FFFFFF" stroke-width="0.8" paint-order="stroke">J1</text>
<polyline points="104.90,91.15 104.90,84.05" fill="none" stroke="#303030" stroke-width="0.35"/>
<polyline points="109.64,88.85 110.35,88.35" fill="none" stroke="#303030" stroke-width="0.35"/>
<polyline points="110.35,84.05 104.90,84.05" fill="none" stroke="#303030" stroke-width="0.35"/>
<polyline points="110.35,89.35 109.64,88.85" fill="none" stroke="#303030" stroke-width="0.35"/>
<polyline points="110.35,91.15 104.90,91.15" fill="none" stroke="#303030" stroke-width="0.35"/>
<polyline points="110.35,91.15 110.35,84.05" fill="none" stroke="#303030" stroke-width="0.35"/>
<circle cx="110.35" cy="88.85" r="0.70" fill="#FFFFFF" stroke="#404040" stroke-width="0.25"/>
<text x="110.35" y="91.75" font-size="1.8" text-anchor="middle" fill="#333333">1</text>
<circle cx="110.35" cy="87.60" r="0.70" fill="#FFFFFF" stroke="#404040" stroke-width="0.25"/>
<text x="110.35" y="90.50" font-size="1.8" text-anchor="middle" fill="#333333">2</text>
<circle cx="110.35" cy="86.35" r="0.70" fill="#FFFFFF" stroke="#404040" stroke-width="0.25"/>
<text x="110.35" y="89.25" font-size="1.8" text-anchor="middle" fill="#333333">3</text>
<circle cx="107.00" cy="84.50" r="0.70" fill="#FFFFFF" stroke="#404040" stroke-width="0.25"/>
<text x="107.00" y="87.40" font-size="1.8" text-anchor="middle" fill="#333333">MP</text>
<text x="108.40" y="87.60" font-size="3.2" font-weight="bold" text-anchor="middle" fill="#000000" stroke="#FFFFFF" stroke-width="0.8" paint-order="stroke">J2</text>
<polyline points="172.20,104.05 179.30,104.05" fill="none" stroke="#303030" stroke-width="0.35"/>
<polyline points="172.20,109.50 172.20,104.05" fill="none" stroke="#303030" stroke-width="0.35"/>
<polyline points="172.20,109.50 179.30,109.50" fill="none" stroke="#303030" stroke-width="0.35"/>
<polyline points="174.00,109.50 174.50,108.79" fill="none" stroke="#303030" stroke-width="0.35"/>
<polyline points="174.50,108.79 175.00,109.50" fill="none" stroke="#303030" stroke-width="0.35"/>
<polyline points="179.30,109.50 179.30,104.05" fill="none" stroke="#303030" stroke-width="0.35"/>
<circle cx="174.50" cy="109.50" r="0.70" fill="#FFFFFF" stroke="#404040" stroke-width="0.25"/>
<text x="174.50" y="112.40" font-size="1.8" text-anchor="middle" fill="#333333">1</text>
<circle cx="175.75" cy="109.50" r="0.70" fill="#FFFFFF" stroke="#404040" stroke-width="0.25"/>
<text x="175.75" y="112.40" font-size="1.8" text-anchor="middle" fill="#333333">2</text>
<circle cx="177.00" cy="109.50" r="0.70" fill="#FFFFFF" stroke="#404040" stroke-width="0.25"/>
<text x="177.00" y="112.40" font-size="1.8" text-anchor="middle" fill="#333333">3</text>
<circle cx="178.85" cy="106.15" r="0.70" fill="#FFFFFF" stroke="#404040" stroke-width="0.25"/>
<text x="178.85" y="109.05" font-size="1.8" text-anchor="middle" fill="#333333">MP</text>
<text x="175.75" y="107.55" font-size="3.2" font-weight="bold" text-anchor="middle" fill="#000000" stroke="#FFFFFF" stroke-width="0.8" paint-order="stroke">J4</text>
<polyline points="139.57,67.88 146.68,67.88" fill="none" stroke="#303030" stroke-width="0.35"/>
<polyline points="139.57,73.33 139.57,67.88" fill="none" stroke="#303030" stroke-width="0.35"/>
<polyline points="139.57,73.33 146.68,73.33" fill="none" stroke="#303030" stroke-width="0.35"/>
<polyline points="141.38,73.33 141.88,72.62" fill="none" stroke="#303030" stroke-width="0.35"/>
<polyline points="141.88,72.62 142.38,73.33" fill="none" stroke="#303030" stroke-width="0.35"/>
<polyline points="146.68,73.33 146.68,67.88" fill="none" stroke="#303030" stroke-width="0.35"/>
<circle cx="141.88" cy="73.33" r="0.70" fill="#FFFFFF" stroke="#404040" stroke-width="0.25"/>
<text x="141.88" y="76.23" font-size="1.8" text-anchor="middle" fill="#333333">1</text>
<circle cx="143.12" cy="73.33" r="0.70" fill="#FFFFFF" stroke="#404040" stroke-width="0.25"/>
<text x="143.12" y="76.23" font-size="1.8" text-anchor="middle" fill="#333333">2</text>
<circle cx="144.38" cy="73.33" r="0.70" fill="#FFFFFF" stroke="#404040" stroke-width="0.25"/>
<text x="144.38" y="76.23" font-size="1.8" text-anchor="middle" fill="#333333">3</text>
<circle cx="146.22" cy="69.97" r="0.70" fill="#FFFFFF" stroke="#404040" stroke-width="0.25"/>
<text x="146.22" y="72.88" font-size="1.8" text-anchor="middle" fill="#333333">MP</text>
<text x="143.12" y="71.38" font-size="3.2" font-weight="bold" text-anchor="middle" fill="#000000" stroke="#FFFFFF" stroke-width="0.8" paint-order="stroke">J6</text>
<polyline points="139.35,52.40 146.45,52.40" fill="none" stroke="#303030" stroke-width="0.35"/>
<polyline points="139.35,57.85 139.35,52.40" fill="none" stroke="#303030" stroke-width="0.35"/>
<polyline points="139.35,57.85 146.45,57.85" fill="none" stroke="#303030" stroke-width="0.35"/>
<polyline points="141.15,57.85 141.65,57.14" fill="none" stroke="#303030" stroke-width="0.35"/>
<polyline points="141.65,57.14 142.15,57.85" fill="none" stroke="#303030" stroke-width="0.35"/>
<polyline points="146.45,57.85 146.45,52.40" fill="none" stroke="#303030" stroke-width="0.35"/>
<circle cx="141.65" cy="57.85" r="0.70" fill="#FFFFFF" stroke="#404040" stroke-width="0.25"/>
<text x="141.65" y="60.75" font-size="1.8" text-anchor="middle" fill="#333333">1</text>
<circle cx="142.90" cy="57.85" r="0.70" fill="#FFFFFF" stroke="#404040" stroke-width="0.25"/>
<text x="142.90" y="60.75" font-size="1.8" text-anchor="middle" fill="#333333">2</text>
<circle cx="144.15" cy="57.85" r="0.70" fill="#FFFFFF" stroke="#404040" stroke-width="0.25"/>
<text x="144.15" y="60.75" font-size="1.8" text-anchor="middle" fill="#333333">3</text>
<circle cx="146.00" cy="54.50" r="0.70" fill="#FFFFFF" stroke="#404040" stroke-width="0.25"/>
<text x="146.00" y="57.40" font-size="1.8" text-anchor="middle" fill="#333333">MP</text>
<text x="142.90" y="55.90" font-size="3.2" font-weight="bold" text-anchor="middle" fill="#000000" stroke="#FFFFFF" stroke-width="0.8" paint-order="stroke">J5</text>
<polyline points="177.55,77.40 184.65,77.40" fill="none" stroke="#303030" stroke-width="0.35"/>
<polyline points="177.55,82.85 177.55,77.40" fill="none" stroke="#303030" stroke-width="0.35"/>
<polyline points="177.55,82.85 184.65,82.85" fill="none" stroke="#303030" stroke-width="0.35"/>
<polyline points="179.35,82.85 179.85,82.14" fill="none" stroke="#303030" stroke-width="0.35"/>
<polyline points="179.85,82.14 180.35,82.85" fill="none" stroke="#303030" stroke-width="0.35"/>
<polyline points="184.65,82.85 184.65,77.40" fill="none" stroke="#303030" stroke-width="0.35"/>
<circle cx="179.85" cy="82.85" r="0.70" fill="#FFFFFF" stroke="#404040" stroke-width="0.25"/>
<text x="179.85" y="85.75" font-size="1.8" text-anchor="middle" fill="#333333">1</text>
<circle cx="181.10" cy="82.85" r="0.70" fill="#FFFFFF" stroke="#404040" stroke-width="0.25"/>
<text x="181.10" y="85.75" font-size="1.8" text-anchor="middle" fill="#333333">2</text>
<circle cx="182.35" cy="82.85" r="0.70" fill="#FFFFFF" stroke="#404040" stroke-width="0.25"/>
<text x="182.35" y="85.75" font-size="1.8" text-anchor="middle" fill="#333333">3</text>
<circle cx="184.20" cy="79.50" r="0.70" fill="#FFFFFF" stroke="#404040" stroke-width="0.25"/>
<text x="184.20" y="82.40" font-size="1.8" text-anchor="middle" fill="#333333">MP</text>
<text x="181.10" y="80.90" font-size="3.2" font-weight="bold" text-anchor="middle" fill="#000000" stroke="#FFFFFF" stroke-width="0.8" paint-order="stroke">J3</text>
<text x="144.15" y="64.39" font-size="2.6" text-anchor="middle" fill="#101010" stroke="#FFFFFF" stroke-width="0.7" paint-order="stroke">W5-L1</text>
<text x="141.65" y="57.59" font-size="2.6" text-anchor="middle" fill="#101010" stroke="#FFFFFF" stroke-width="0.7" paint-order="stroke">W5-L2</text>
<text x="142.90" y="50.79" font-size="2.6" text-anchor="middle" fill="#101010" stroke="#FFFFFF" stroke-width="0.7" paint-order="stroke">W5-L3</text>
<text x="133.60" y="93.55" font-size="2.6" text-anchor="middle" fill="#101010" stroke="#FFFFFF" stroke-width="0.7" paint-order="stroke">M-001</text>
</svg>
